<svg width="128" height="128" viewBox="0 0 128 128" fill="none" xmlns="http://www.w3.org/2000/svg">
<circle cx="64" cy="64" r="64" fill="url(#paint0_linear_2115_380)"/>
<path d="M13.4 74L21.8667 53.3333H21.9111L30.3778 74H27.6889L25.3333 68.0667H18.3333L15.9556 74H13.4ZM19.1778 65.9556H24.4889L22.9111 62C22.7185 61.4963 22.5333 61 22.3556 60.5111C22.1778 60.0222 22 59.437 21.8222 58.7556C21.6444 59.437 21.4741 60.0222 21.3111 60.5111C21.1481 60.9852 20.963 61.4815 20.7556 62L19.1778 65.9556ZM39.0139 74.2667C37.7546 74.2667 36.6361 73.9926 35.6583 73.4444C34.6806 72.8815 33.9102 72.1111 33.3472 71.1333C32.7991 70.1407 32.525 69 32.525 67.7111V54H35.0583V67.6222C35.0583 68.9407 35.4361 70 36.1917 70.8C36.9472 71.6 37.9028 72 39.0583 72C40.1991 72 41.1472 71.6074 41.9028 70.8222C42.6731 70.0222 43.0583 68.9852 43.0583 67.7111V54H45.5028V67.6222C45.5028 68.9259 45.2213 70.0815 44.6583 71.0889C44.1102 72.0815 43.3472 72.8593 42.3694 73.4222C41.4065 73.9852 40.288 74.2667 39.0139 74.2667ZM51.5951 74V62.6667H48.5729V60.6667H51.6618V56.2222H53.9285V60.6667H57.2396V62.6667H53.9951V74H51.5951ZM65.1285 74.2667C64.1951 74.2667 63.3211 74.037 62.5062 73.5778C61.6914 73.1037 61.0322 72.4222 60.5285 71.5333C60.0248 70.6444 59.7729 69.5778 59.7729 68.3333V60.6667H62.1729V68C62.1729 69.0519 62.484 69.9852 63.1063 70.8C63.7433 71.6 64.6322 72 65.7729 72C66.7063 72 67.5359 71.6667 68.2618 71C69.0025 70.3185 69.3729 69.3407 69.3729 68.0667V60.6667H71.7729V74H69.5507V71.8444C69.0618 72.6296 68.4248 73.2296 67.6396 73.6444C66.8692 74.0593 66.0322 74.2667 65.1285 74.2667ZM76.0396 74V60.6667H78.2618V62.5778C78.7507 61.8519 79.3655 61.3111 80.1063 60.9556C80.8618 60.5852 81.6544 60.4 82.484 60.4C83.3877 60.4 84.2174 60.6148 84.9729 61.0444C85.7285 61.4593 86.3359 62.0444 86.7951 62.8C87.3137 62 87.9803 61.4 88.7951 61C89.6248 60.6 90.4988 60.4 91.4174 60.4C92.4248 60.4 93.3433 60.637 94.1729 61.1111C95.0174 61.5852 95.684 62.2519 96.1729 63.1111C96.6766 63.9556 96.9285 64.9556 96.9285 66.1111V74H94.5285V66.4C94.5285 65.1852 94.1803 64.2667 93.484 63.6444C92.8025 63.0074 92.01 62.6889 91.1063 62.6889C90.5433 62.6889 89.9951 62.8148 89.4618 63.0667C88.9433 63.3185 88.5137 63.7111 88.1729 64.2444C87.847 64.7778 87.684 65.4741 87.684 66.3333V74H85.284V66.4C85.284 65.5556 85.1137 64.8593 84.7729 64.3111C84.447 63.763 84.0174 63.3556 83.484 63.0889C82.9655 62.8074 82.4248 62.6667 81.8618 62.6667C81.3137 62.6667 80.7729 62.7926 80.2396 63.0444C79.7211 63.2963 79.2914 63.6889 78.9507 64.2222C78.61 64.7556 78.4396 65.4593 78.4396 66.3333V74H76.0396ZM100.915 74V60.6667H103.137V62.8222C103.626 62.037 104.255 61.437 105.026 61.0222C105.811 60.6074 106.655 60.4 107.559 60.4C108.507 60.4 109.381 60.637 110.181 61.1111C110.996 61.5704 111.655 62.2444 112.159 63.1333C112.663 64.0074 112.915 65.0741 112.915 66.3333V74H110.515V66.6667C110.515 65.6148 110.196 64.6889 109.559 63.8889C108.937 63.0741 108.055 62.6667 106.915 62.6667C105.981 62.6667 105.144 63.0074 104.403 63.6889C103.678 64.3556 103.315 65.3259 103.315 66.6V74H100.915Z" fill="#FCF5F5"/>
<defs>
<linearGradient id="paint0_linear_2115_380" x1="64" y1="0" x2="64" y2="128" gradientUnits="userSpaceOnUse">
<stop stop-color="#FFB69A"/>
<stop offset="1" stop-color="#FF8E71"/>
</linearGradient>
</defs>
</svg>
